<?xml version="1.0" encoding="iso-8859-1"?>
<!-- Generator: Adobe Illustrator 19.0.0, SVG Export Plug-In . SVG Version: 6.00 Build 0)  -->
<svg version="1.1" id="Layer_1" xmlns="http://www.w3.org/2000/svg" xmlns:xlink="http://www.w3.org/1999/xlink" x="0px" y="0px"
	 viewBox="0 0 230.305 230.305" style="enable-background:new 0 0 230.305 230.305;" xml:space="preserve">
<g>
	<g>
		<g>
			<path d="M230.277,165.193l-9.755-84.546c-1.535-13.278-13.656-24.081-27.02-24.081H80.808V44.445c0-2.231-1.807-4.04-4.04-4.04
				H60.606c-2.233,0-4.04,1.809-4.04,4.04v12.121H44.444c-1.468,0-2.821,0.797-3.535,2.083c-0.107,0.194-2.651,4.798-5.922,11.547
				c-0.714,1.48-0.722,3.137-0.016,4.547c1.207,2.404,3.876,3.299,7.732,4.114l-16.842,30.315c-0.264-0.047-0.526-0.081-0.805-0.081
				C15.534,109.092,0,118.481,0,125.897v39.761c0,2.231,1.807,4.04,4.04,4.04h20.567C26.54,181.145,36.496,189.9,48.485,189.9
				s21.945-8.755,23.878-20.202h73.457c1.933,11.447,11.888,20.202,23.878,20.202c11.989,0,21.945-8.755,23.878-20.202h32.688
				c1.152,0,2.249-0.491,3.015-1.352C230.048,167.486,230.412,166.338,230.277,165.193z M64.646,48.486h8.081v8.081h-8.081V48.486z
				 M50.988,80.58c5.378,1.288,10.886,3.292,13.216,7.333c1.705,2.961,1.645,7.12-0.174,12.358
				c-2.651,7.623-6.495,12.502-11.427,14.497c-6.513,2.637-14.05,0.108-19.341-2.28L50.988,80.58z M48.485,181.819
				c-8.914,0-16.162-7.25-16.162-16.162c0-8.912,7.248-16.162,16.162-16.162s16.162,7.25,16.162,16.162
				C64.646,174.569,57.398,181.819,48.485,181.819z M169.697,181.819c-8.914,0-16.162-7.25-16.162-16.162
				c0-8.912,7.248-16.162,16.162-16.162s16.162,7.25,16.162,16.162C185.859,174.569,178.611,181.819,169.697,181.819z
				 M193.604,161.615v0.002c-0.016-0.093-0.054-0.177-0.071-0.271c-0.222-1.23-0.539-2.424-0.939-3.582
				c-0.074-0.213-0.152-0.42-0.231-0.63c-0.436-1.155-0.944-2.272-1.543-3.335c-0.087-0.154-0.185-0.3-0.275-0.453
				c-0.651-1.098-1.366-2.154-2.176-3.133c-0.022-0.027-0.047-0.05-0.069-0.076c-0.815-0.974-1.715-1.871-2.67-2.707
				c-0.107-0.094-0.206-0.194-0.316-0.286c-0.939-0.794-1.948-1.503-3.002-2.148c-0.177-0.109-0.351-0.219-0.532-0.323
				c-1.052-0.608-2.151-1.136-3.294-1.583c-0.2-0.078-0.402-0.148-0.604-0.221c-1.174-0.423-2.382-0.771-3.632-1.009
				c-0.16-0.03-0.322-0.046-0.483-0.074c-1.326-0.226-2.68-0.37-4.069-0.37c-1.389,0-2.743,0.144-4.069,0.369
				c-0.161,0.027-0.323,0.043-0.483,0.074c-1.25,0.239-2.458,0.586-3.633,1.009c-0.202,0.073-0.403,0.143-0.602,0.221
				c-1.143,0.447-2.243,0.975-3.295,1.583c-0.181,0.104-0.354,0.214-0.532,0.323c-1.053,0.646-2.062,1.355-3.002,2.148
				c-0.109,0.092-0.208,0.193-0.316,0.286c-0.956,0.836-1.855,1.733-2.67,2.707c-0.022,0.027-0.047,0.05-0.069,0.076
				c-0.811,0.979-1.526,2.037-2.178,3.136c-0.09,0.151-0.186,0.295-0.272,0.448c-0.6,1.064-1.109,2.181-1.545,3.337
				c-0.08,0.21-0.157,0.417-0.231,0.63c-0.401,1.158-0.718,2.353-0.939,3.582c-0.017,0.093-0.055,0.177-0.071,0.271H72.392
				c-0.016-0.093-0.054-0.177-0.071-0.271c-0.222-1.229-0.539-2.424-0.939-3.582c-0.074-0.213-0.152-0.42-0.231-0.63
				c-0.436-1.155-0.944-2.272-1.543-3.335c-0.087-0.154-0.185-0.3-0.275-0.453c-0.651-1.098-1.366-2.154-2.176-3.133
				c-0.022-0.027-0.047-0.05-0.069-0.076c-0.815-0.974-1.715-1.871-2.67-2.707c-0.107-0.094-0.206-0.194-0.316-0.286
				c-0.939-0.794-1.948-1.503-3.002-2.148c-0.177-0.109-0.351-0.219-0.532-0.323c-1.052-0.608-2.151-1.136-3.294-1.583
				c-0.2-0.078-0.402-0.148-0.604-0.221c-1.174-0.423-2.382-0.771-3.632-1.009c-0.16-0.03-0.322-0.046-0.483-0.074
				c-1.326-0.225-2.68-0.369-4.069-0.369c-1.389,0-2.743,0.144-4.069,0.369c-0.161,0.027-0.323,0.043-0.483,0.074
				c-1.25,0.239-2.458,0.586-3.633,1.009c-0.202,0.073-0.403,0.143-0.602,0.221c-1.143,0.447-2.243,0.975-3.295,1.583
				c-0.181,0.104-0.354,0.214-0.532,0.323c-1.053,0.646-2.062,1.355-3.002,2.148c-0.109,0.092-0.208,0.193-0.316,0.286
				c-0.956,0.836-1.855,1.733-2.67,2.707c-0.022,0.027-0.047,0.05-0.069,0.076c-0.811,0.979-1.526,2.037-2.178,3.136
				c-0.09,0.151-0.186,0.295-0.272,0.448c-0.6,1.064-1.109,2.181-1.545,3.337c-0.08,0.21-0.157,0.417-0.231,0.63
				c-0.401,1.158-0.718,2.353-0.939,3.582c-0.017,0.094-0.055,0.178-0.071,0.271H8.077l-0.043-35.342
				c0.801-2.273,9.683-8.708,16.414-9.085c0.351,0.164,0.809,0.402,1.354,0.679c5.421,2.731,18.126,9.124,29.834,4.389
				c7.185-2.908,12.579-9.413,16.027-19.332c2.628-7.556,2.474-13.964-0.458-19.048c-5.015-8.696-16.608-10.93-24.282-12.407
				c-1.01-0.194-2.202-0.424-3.236-0.653c1.294-2.592,2.403-4.725,3.173-6.171h146.642c9.395,0,17.914,7.594,18.995,16.927
				l9.233,80.042H193.604z"/>
			<path d="M137.374,80.809h-24.242v16.162H96.97v24.242h16.162v16.162h24.242v-16.162h16.162V96.971h-16.162V80.809z
				 M145.455,105.052v8.08h-16.162v16.162h-8.081v-16.162H105.05v-8.081h16.162V88.89h8.081v16.162H145.455z"/>
		</g>
	</g>
</g>
<g>
</g>
<g>
</g>
<g>
</g>
<g>
</g>
<g>
</g>
<g>
</g>
<g>
</g>
<g>
</g>
<g>
</g>
<g>
</g>
<g>
</g>
<g>
</g>
<g>
</g>
<g>
</g>
<g>
</g>
</svg>
